<?xml version="1.0" encoding="UTF-8"?>
<!DOCTYPE svg PUBLIC "-//W3C//DTD SVG 1.1//EN" "http://www.w3.org/Graphics/SVG/1.1/DTD/svg11.dtd">
<!-- Creator: CorelDRAW X7 -->
<svg xmlns="http://www.w3.org/2000/svg" xml:space="preserve" width="16.9332mm" height="5.9266mm" version="1.1" style="shape-rendering:geometricPrecision; text-rendering:geometricPrecision; image-rendering:optimizeQuality; fill-rule:evenodd; clip-rule:evenodd"
viewBox="0 0 1693 593"
 xmlns:xlink="http://www.w3.org/1999/xlink">
 <defs>
  <style type="text/css">
   <![CDATA[
    .fil0 {fill:#E95821}
    .fil3 {fill:#2B2A29;fill-rule:nonzero}
    .fil1 {fill:#E95821;fill-rule:nonzero}
    .fil2 {fill:#358DCC;fill-rule:nonzero}
   ]]>
  </style>
 </defs>
 <g id="Layer_x0020_1">
  <metadata id="CorelCorpID_0Corel-Layer"/>
  <g id="_1733064583840">
   <g>
    <path class="fil0" d="M1243 347c0,-1 7,-11 7,-12 3,-5 5,-8 8,-13l11 -18c1,-2 2,-4 3,-7 9,-21 -7,-45 -30,-44 -22,0 -40,22 -30,45 2,5 19,31 23,37 1,2 2,4 4,6 1,1 3,5 4,6z"/>
    <path class="fil1" d="M133 16l0 260c0,32 6,56 18,71 13,15 33,22 61,22 27,0 48,-7 62,-22 12,-14 19,-38 19,-71l0 -260 86 0 0 269c0,52 -15,91 -44,118 -26,26 -67,40 -123,40 -55,0 -96,-14 -123,-40 -29,-27 -44,-66 -44,-118l0 -223c0,-12 5,-23 13,-32 9,-9 19,-14 31,-14l44 0z"/>
    <path class="fil0" d="M1111 92l0 2c1,2 0,4 4,6 2,2 6,2 9,1 3,0 5,-2 7,-4l6 -4c5,-4 13,-9 19,-13 3,-1 5,-2 7,-3 22,-10 45,-16 73,-16 28,0 52,6 73,16 3,1 5,2 7,4 3,1 5,2 7,3 2,2 5,3 7,5l4 3c1,0 1,0 2,1 1,0 1,0 2,1 0,1 0,1 1,1 3,2 5,5 10,6 3,1 6,1 8,-1 4,-2 4,-4 5,-6l0 -2c-1,-1 -1,-2 -2,-4 -1,-1 -8,-6 -10,-8l-4 -3c-11,-8 -20,-12 -33,-18 -18,-8 -40,-13 -60,-15 -2,0 -9,0 -10,0l-14 0c-3,1 -40,-1 -84,22 -4,2 -12,6 -16,9l-7 5c-1,1 -1,1 -2,1l-5 5c-4,3 -3,3 -4,6z"/>
    <path class="fil0" d="M1227 79c-28,2 -50,10 -71,23 -1,1 -3,2 -5,3l-9 7c-3,4 -2,8 1,12 2,2 8,4 12,2 2,-1 6,-5 9,-7l3 -2c29,-20 71,-26 107,-15 11,3 15,6 24,10 2,2 8,5 10,7 2,1 8,6 9,7 10,4 20,-5 13,-14 -1,-2 -7,-5 -9,-7l-10 -7c-4,-1 -7,-4 -11,-5 -4,-2 -8,-4 -12,-5 -19,-7 -39,-10 -61,-9z"/>
    <path class="fil0" d="M1231 114c-18,1 -38,7 -50,16 -2,1 -3,2 -4,3 -2,1 -5,3 -6,5 -6,8 6,18 16,11 0,-1 1,-1 1,-1l6 -4c23,-16 60,-16 84,-1 6,4 9,9 16,8 6,0 12,-6 8,-12 -2,-3 -10,-9 -13,-11 -18,-10 -36,-15 -58,-14z"/>
    <path class="fil2" d="M523 433l0 -283 -102 0 0 -25c0,-10 4,-18 11,-25 7,-7 15,-10 25,-10l238 0 0 60 -101 0 0 283 -71 0zm152 0l0 -129c0,-26 4,-48 12,-65 8,-18 18,-32 31,-43 13,-10 28,-17 45,-22 17,-5 34,-7 52,-7 1,0 3,0 5,0 2,0 4,0 5,0l0 71 -23 0c-19,0 -33,5 -43,14 -9,9 -14,24 -14,44l0 137 -70 0zm345 -134c-9,5 -22,9 -39,13 -15,4 -23,5 -23,5 -12,4 -21,8 -26,13 -5,8 -7,15 -7,22 0,10 3,18 9,24 6,5 15,8 26,8 19,0 33,-5 44,-16 11,-11 16,-25 16,-44l0 -25zm16 123c-14,7 -29,11 -45,13 -15,2 -29,3 -41,3 -24,0 -45,-7 -63,-20 -18,-13 -27,-34 -27,-64 0,-28 8,-48 25,-60 16,-12 37,-20 62,-24 3,0 7,0 12,-1 5,-1 10,-2 16,-3 29,-4 44,-13 44,-26 0,-10 -5,-16 -16,-19 -10,-3 -19,-5 -28,-5 -9,0 -18,2 -25,4 -7,3 -13,8 -16,16l-67 0c3,-21 12,-38 28,-51 18,-16 44,-23 77,-23 37,0 65,6 84,19 19,13 29,31 29,55l0 91c0,27 -5,47 -15,62 -9,15 -21,26 -34,33zm277 -71l50 0c-7,28 -21,49 -42,64 -20,15 -46,23 -77,23 -38,0 -68,-13 -89,-37 -21,-24 -32,-58 -32,-103 0,-42 10,-76 31,-100 21,-24 51,-36 89,-36 39,0 70,12 92,35 12,15 21,32 26,51l-70 0c-3,-6 -6,-11 -10,-15 -8,-9 -20,-14 -36,-14 -15,0 -27,5 -36,14 -12,14 -18,35 -18,66 0,31 6,52 18,65 8,11 21,16 39,16 11,0 21,-2 28,-7 2,-1 4,-2 6,-4 2,-1 3,-3 5,-5 2,-2 4,-5 8,-8 4,-3 10,-5 18,-5zm165 -184l0 0 0 98 85 -98 84 0 -95 102 96 164 -84 0 -49 -90c-10,-18 -18,-26 -26,-23 -7,3 -11,7 -11,12l0 37 0 64 -69 0 0 -343 35 0c10,0 18,3 24,10 7,6 10,14 10,23l0 44z"/>
   </g>
   <path class="fil3" d="M70 558c0,3 2,5 5,5 3,0 5,-2 5,-5l0 -45 14 0c3,0 5,-2 5,-4 0,-3 -2,-5 -5,-5l-39 0c-2,0 -4,2 -4,5 0,2 2,4 4,4l15 0 0 45zm32 0c0,3 3,5 6,5 2,0 5,-2 5,-5l0 -13c0,-10 5,-16 12,-17 2,-1 4,-2 4,-5 0,-3 -2,-5 -5,-5 -5,0 -9,4 -11,10l0 -5c0,-3 -3,-5 -5,-5 -3,0 -6,2 -6,5l0 35zm46 6c7,0 11,-3 14,-7l0 2c0,2 2,4 5,4 3,0 5,-2 5,-5l0 -22c0,-5 -1,-10 -4,-13 -4,-3 -9,-5 -15,-5 -6,0 -10,1 -15,2 -1,1 -2,3 -2,4 0,3 2,5 4,5 1,0 1,0 2,-1 2,-1 6,-1 9,-1 8,0 11,3 11,9l0 1c-3,-1 -6,-1 -11,-1 -11,0 -19,4 -19,14l0 0c0,9 8,14 16,14zm3 -8c-5,0 -9,-2 -9,-6l0 -1c0,-4 4,-7 11,-7 4,0 7,1 10,2l0 3c0,5 -5,9 -12,9zm54 8c8,0 12,-3 16,-6 1,-1 2,-2 2,-4 0,-2 -2,-4 -5,-4 -1,0 -2,0 -2,1 -3,2 -6,4 -10,4 -8,0 -14,-6 -14,-14l0 0c0,-8 6,-15 13,-15 4,0 7,2 10,4 0,1 1,1 3,1 2,0 4,-2 4,-4 0,-2 0,-3 -1,-4 -4,-3 -9,-6 -16,-6 -13,0 -23,11 -23,24l0 0c0,12 10,23 23,23zm28 -6c0,3 2,5 5,5 3,0 5,-2 5,-5l0 -8 7 -6 12 17c2,2 3,2 5,2 2,0 5,-2 5,-4 0,-2 -1,-3 -2,-4l-13 -17 11 -11c2,-2 3,-3 3,-5 0,-2 -2,-4 -5,-4 -1,0 -3,1 -4,2l-19 19 0 -33c0,-3 -2,-5 -5,-5 -3,0 -5,2 -5,5l0 52zm82 19c7,0 11,-4 15,-13l16 -39c0,0 0,-2 0,-2 0,-3 -2,-5 -4,-5 -3,0 -4,2 -5,4l-11 29 -12 -29c-1,-3 -3,-4 -5,-4 -3,0 -5,2 -5,5 0,0 0,2 0,2l17 37 -1 1c-1,4 -3,5 -6,5 -1,0 -2,0 -3,-1 -1,0 -1,0 -2,0 -3,0 -4,2 -4,4 0,3 1,4 3,4 2,1 4,2 7,2zm61 -13c13,0 23,-11 23,-23l0 0c0,-13 -10,-24 -23,-24 -14,0 -24,11 -24,24l0 0c0,12 10,23 24,23zm0 -9c-8,0 -14,-7 -14,-14l0 0c0,-8 5,-15 14,-15 8,0 13,7 13,15l0 0c0,8 -5,14 -13,14zm73 -32c0,-3 -2,-5 -5,-5 -3,0 -5,2 -5,5l0 20c0,7 -4,11 -10,11 -6,0 -10,-3 -10,-10l0 -21c0,-3 -2,-5 -5,-5 -2,0 -5,2 -5,5l0 24c0,10 6,17 16,17 7,0 11,-4 14,-8l0 2c0,3 2,5 5,5 3,0 5,-2 5,-5l0 -35zm13 35c0,3 2,5 5,5 3,0 5,-2 5,-5l0 -13c0,-10 5,-16 12,-17 3,-1 4,-2 4,-5 0,-3 -1,-5 -5,-5 -4,0 -8,4 -11,10l0 -5c0,-3 -2,-5 -5,-5 -3,0 -5,2 -5,5l0 35zm84 6l1 0c3,0 5,-2 6,-5l20 -48c1,-1 1,-2 1,-3 0,-2 -2,-5 -5,-5 -3,0 -4,2 -5,4l-17 43 -17 -43c-1,-2 -3,-4 -6,-4 -3,0 -5,3 -5,6 0,0 0,1 1,2l20 48c1,3 3,5 6,5zm41 -27c1,-6 5,-11 11,-11 7,0 11,5 11,11l-22 0zm28 21c1,-1 2,-2 2,-3 0,-3 -2,-4 -4,-4 -1,0 -2,0 -3,1 -3,2 -6,3 -10,3 -7,0 -12,-4 -13,-11l28 0c2,0 4,-2 4,-5 0,-10 -7,-22 -21,-22 -12,0 -21,11 -21,24l0 0c0,13 10,23 22,23 7,0 12,-2 16,-6zm15 0c0,3 2,5 5,5 3,0 5,-2 5,-5l0 -20c0,-7 4,-11 10,-11 6,0 10,4 10,11l0 20c0,3 2,5 5,5 3,0 5,-2 5,-5l0 -24c0,-10 -6,-17 -16,-17 -7,0 -11,4 -14,8l0 -19c0,-3 -2,-5 -5,-5 -3,0 -5,2 -5,5l0 52zm52 -51c0,3 2,5 6,5 3,0 6,-2 6,-5l0 -1c0,-3 -3,-5 -6,-5 -4,0 -6,2 -6,5l0 1zm1 51c0,3 2,5 5,5 3,0 5,-2 5,-5l0 -35c0,-3 -2,-5 -5,-5 -3,0 -5,2 -5,5l0 35zm44 6c7,0 12,-3 16,-6 1,-1 1,-2 1,-4 0,-2 -2,-4 -4,-4 -1,0 -2,0 -3,1 -3,2 -6,4 -10,4 -8,0 -13,-6 -13,-14l0 0c0,-8 5,-15 13,-15 4,0 7,2 9,4 1,1 2,1 3,1 3,0 5,-2 5,-4 0,-2 -1,-3 -2,-4 -3,-3 -8,-6 -15,-6 -14,0 -23,11 -23,24l0 0c0,12 9,23 23,23zm28 -6c0,3 2,5 5,5 3,0 5,-2 5,-5l0 -52c0,-3 -2,-5 -5,-5 -3,0 -5,2 -5,5l0 52zm31 -21c1,-6 5,-11 12,-11 6,0 10,5 11,11l-23 0zm29 21c0,-1 1,-2 1,-3 0,-3 -2,-4 -4,-4 -1,0 -2,0 -3,1 -2,2 -6,3 -10,3 -7,0 -12,-4 -13,-11l28 0c3,0 5,-2 5,-5 0,-10 -7,-22 -21,-22 -13,0 -22,11 -22,24l0 0c0,13 10,23 23,23 7,0 12,-2 16,-6zm52 6c7,0 12,-3 15,-7l0 2c0,2 2,4 5,4 2,0 5,-2 5,-5l0 -22c0,-5 -2,-10 -5,-13 -3,-3 -8,-5 -15,-5 -6,0 -10,1 -14,2 -2,1 -3,3 -3,4 0,3 2,5 4,5 1,0 1,0 2,-1 3,-1 6,-1 10,-1 7,0 11,3 11,9l0 1c-4,-1 -7,-1 -12,-1 -11,0 -19,4 -19,14l0 0c0,9 8,14 16,14zm3 -8c-5,0 -9,-2 -9,-6l0 -1c0,-4 4,-7 11,-7 4,0 7,1 10,2l0 3c0,5 -5,9 -12,9zm48 8c3,0 5,-1 7,-2 2,0 3,-2 3,-4 0,-2 -2,-4 -4,-4 -1,0 -2,0 -3,0 -3,0 -5,-1 -5,-5l0 -22 8 0c2,0 4,-2 4,-4 0,-3 -2,-5 -4,-5l-8 0 0 -7c0,-3 -3,-5 -5,-5 -3,0 -5,2 -5,5l0 7 -2 0c-3,0 -5,2 -5,5 0,2 2,4 5,4l2 0 0 24c0,9 5,13 12,13zm53 13c8,0 12,-4 15,-13l17 -39c0,0 0,-2 0,-2 0,-3 -2,-5 -5,-5 -2,0 -4,2 -5,4l-11 29 -12 -29c-1,-3 -2,-4 -5,-4 -3,0 -5,2 -5,5 0,0 0,2 1,2l16 37 0 1c-2,4 -3,5 -6,5 -2,0 -3,0 -4,-1 0,0 -1,0 -2,0 -2,0 -4,2 -4,4 0,3 2,4 3,4 2,1 5,2 7,2zm61 -13c14,0 24,-11 24,-23l0 0c0,-13 -10,-24 -24,-24 -13,0 -23,11 -23,24l0 0c0,12 10,23 23,23zm0 -9c-8,0 -13,-7 -13,-14l0 0c0,-8 5,-15 13,-15 8,0 14,7 14,15l0 0c0,8 -5,14 -14,14zm74 -32c0,-3 -3,-5 -5,-5 -3,0 -5,2 -5,5l0 20c0,7 -5,11 -10,11 -7,0 -10,-3 -10,-10l0 -21c0,-3 -2,-5 -5,-5 -3,0 -5,2 -5,5l0 24c0,10 6,17 16,17 7,0 11,-4 14,-8l0 2c0,3 2,5 5,5 3,0 5,-2 5,-5l0 -35zm13 35c0,3 2,5 5,5 2,0 5,-2 5,-5l0 -13c0,-10 5,-16 12,-17 2,-1 4,-2 4,-5 0,-3 -2,-5 -5,-5 -5,0 -9,4 -11,10l0 -5c0,-3 -3,-5 -5,-5 -3,0 -5,2 -5,5l0 35zm61 0c0,3 2,5 5,5 3,0 5,-2 5,-5l0 -19 26 0c2,0 4,-2 4,-5 0,-3 -2,-5 -4,-5l-26 0 0 -16 29 0c3,0 5,-2 5,-4 0,-3 -2,-5 -5,-5l-34 0c-3,0 -5,2 -5,5l0 49zm54 -51c0,3 2,5 5,5 4,0 6,-2 6,-5l0 -1c0,-3 -2,-5 -6,-5 -3,0 -5,2 -5,5l0 1zm0 51c0,3 3,5 5,5 3,0 6,-2 6,-5l0 -35c0,-3 -3,-5 -6,-5 -2,0 -5,2 -5,5l0 35zm24 0c0,3 2,5 5,5 3,0 5,-2 5,-5l0 -20c0,-7 4,-11 10,-11 6,0 10,4 10,11l0 20c0,3 2,5 5,5 3,0 5,-2 5,-5l0 -24c0,-10 -6,-17 -16,-17 -7,0 -11,4 -14,8l0 -2c0,-3 -2,-5 -5,-5 -3,0 -5,2 -5,5l0 35zm72 18c8,0 14,-1 18,-6 4,-3 6,-9 6,-16l0 -31c0,-3 -2,-5 -5,-5 -3,0 -5,2 -5,5l0 2c-4,-4 -8,-8 -16,-8 -10,0 -20,8 -20,21l0 0c0,14 10,21 20,21 7,0 12,-3 16,-8l0 4c0,8 -5,13 -14,13 -5,0 -10,-1 -14,-3 -1,-1 -1,-1 -2,-1 -2,0 -4,2 -4,4 0,2 1,4 3,4 5,3 11,4 17,4zm1 -25c-7,0 -13,-5 -13,-13l0 0c0,-7 6,-12 13,-12 7,0 13,5 13,12l0 0c0,8 -6,13 -13,13zm43 -14c1,-6 6,-11 12,-11 7,0 10,5 11,11l-23 0zm29 21c1,-1 1,-2 1,-3 0,-3 -1,-4 -4,-4 -1,0 -2,0 -2,1 -3,2 -7,3 -11,3 -6,0 -12,-4 -13,-11l28 0c3,0 5,-2 5,-5 0,-10 -7,-22 -21,-22 -13,0 -22,11 -22,24l0 0c0,13 10,23 23,23 7,0 12,-2 16,-6zm14 0c0,3 3,5 6,5 2,0 5,-2 5,-5l0 -13c0,-10 5,-16 12,-17 2,-1 4,-2 4,-5 0,-3 -2,-5 -5,-5 -5,0 -9,4 -11,10l0 -5c0,-3 -3,-5 -5,-5 -3,0 -6,2 -6,5l0 35zm76 0c0,3 3,5 5,5 3,0 6,-2 6,-5l0 -45 14 0c3,0 5,-2 5,-4 0,-3 -2,-5 -5,-5l-39 0c-3,0 -5,2 -5,5 0,2 2,4 5,4l14 0 0 45zm37 -51c0,3 3,5 6,5 3,0 6,-2 6,-5l0 -1c0,-3 -3,-5 -6,-5 -3,0 -6,2 -6,5l0 1zm1 51c0,3 2,5 5,5 3,0 5,-2 5,-5l0 -35c0,-3 -2,-5 -5,-5 -3,0 -5,2 -5,5l0 35zm24 14c0,3 2,5 5,5 2,0 5,-2 5,-5l0 -16c3,4 7,8 15,8 10,0 21,-9 21,-23l0 0c0,-15 -11,-24 -21,-24 -7,0 -12,4 -15,9l0 -3c0,-3 -3,-5 -5,-5 -3,0 -5,2 -5,5l0 49zm22 -17c-6,0 -13,-6 -13,-14l0 0c0,-9 7,-15 13,-15 7,0 13,6 13,15l0 0c0,8 -6,14 -13,14zm49 9c10,0 17,-5 17,-14l0 0c0,-8 -8,-11 -14,-13 -5,-2 -10,-3 -10,-7l0 0c0,-2 2,-4 6,-4 3,0 7,1 11,3 0,0 1,0 2,0 2,0 4,-2 4,-4 0,-2 -1,-3 -3,-4 -4,-2 -9,-3 -14,-3 -8,0 -15,5 -15,13l0 0c0,9 7,12 13,13 6,2 10,3 10,7l0 0c0,3 -2,5 -6,5 -5,0 -9,-2 -13,-5 -1,0 -2,0 -2,0 -3,0 -5,2 -5,4 0,1 1,3 2,3 5,4 12,6 17,6z"/>
  </g>
 </g>
</svg>
